HIERARCHY
ROOT ROOT
{
	OFFSET 0.000000 56.020000 -5.659234
	CHANNELS 6 Xposition Yposition Zposition Xrotation Yrotation Zrotation 
	JOINT C_spine0001_bind_JNT
	{
		OFFSET 0.000000 1.618999 0.000000
		CHANNELS 3 Xrotation Yrotation Zrotation
		JOINT C_spine0002_bind_JNT
		{
			OFFSET 0.000000 4.942001 0.000001
			CHANNELS 3 Xrotation Yrotation Zrotation
			JOINT C_spine0003_bind_JNT
			{
				OFFSET 0.000000 4.942001 -0.000000
				CHANNELS 3 Xrotation Yrotation Zrotation
				JOINT C_neck0001_bind_JNT
				{
					OFFSET 0.000000 17.026009 -0.000000
					CHANNELS 3 Xrotation Yrotation Zrotation
					JOINT C_neck0002_bind_JNT
					{
						OFFSET 0.000000 3.249985 0.000000
						CHANNELS 3 Xrotation Yrotation Zrotation
						JOINT C_head_bind_JNT
						{
							OFFSET 0.000000 5.278008 0.000000
							CHANNELS 3 Xrotation Yrotation Zrotation
							End Site
							{
								OFFSET 0.000000 0.000000 0.000000
							}
						}
					}
				}
				JOINT L_clavicle_bind_JNT
				{
					OFFSET 4.590000 12.067001 0.834000
					CHANNELS 3 Xrotation Yrotation Zrotation
					JOINT L_armUpper0001_bind_JNT
					{
						OFFSET 7.812635 0.512001 -3.452945
						CHANNELS 3 Xrotation Yrotation Zrotation
						JOINT L_armLower0001_bind_JNT
						{
							OFFSET 15.265892 -6.552116 -0.058157
							CHANNELS 3 Xrotation Yrotation Zrotation
							JOINT L_hand0001_bind_JNT
							{
								OFFSET 14.747667 -6.369995 5.049225
								CHANNELS 3 Xrotation Yrotation Zrotation
								End Site
								{
									OFFSET 0.000000 0.000000 0.000000
								}
							}
						}
					}
				}
				JOINT R_clavicle_bind_JNT
				{
					OFFSET -4.590000 12.067001 0.834000
					CHANNELS 3 Xrotation Yrotation Zrotation
					JOINT R_armUpper0001_bind_JNT
					{
						OFFSET -7.812635 0.512001 -3.452945
						CHANNELS 3 Xrotation Yrotation Zrotation
						JOINT R_armLower0001_bind_JNT
						{
							OFFSET -15.265890 -6.552124 -0.058160
							CHANNELS 3 Xrotation Yrotation Zrotation
							JOINT R_hand0001_bind_JNT
							{
								OFFSET -14.746784 -6.369629 5.048937
								CHANNELS 3 Xrotation Yrotation Zrotation
								End Site
								{
									OFFSET 0.000000 0.000000 0.000000
								}
							}
						}
					}
				}
			}
		}
	}
	JOINT C_pelvis0001_bind_JNT
	{
		OFFSET -0.000000 0.000000 0.000000
		CHANNELS 3 Xrotation Yrotation Zrotation
		JOINT L_legUpper0001_bind_JNT
		{
			OFFSET 6.599999 -6.027000 0.539000
			CHANNELS 3 Xrotation Yrotation Zrotation
			JOINT L_legLower0001_bind_JNT
			{
				OFFSET -0.140713 -19.187443 0.040261
				CHANNELS 3 Xrotation Yrotation Zrotation
				JOINT L_foot0001_bind_JNT
				{
					OFFSET -0.132215 -18.028637 -1.138370
					CHANNELS 3 Xrotation Yrotation Zrotation
					JOINT L_foot0002_bind_JNT
					{
						OFFSET 0.007014 -4.693133 9.886524
						CHANNELS 3 Xrotation Yrotation Zrotation
						End Site
						{
							OFFSET 0.000000 0.000000 0.000000
						}
					}
				}
			}
		}
		JOINT R_legUpper0001_bind_JNT
		{
			OFFSET -6.599999 -6.027000 0.539000
			CHANNELS 3 Xrotation Yrotation Zrotation
			JOINT R_legLower0001_bind_JNT
			{
				OFFSET 0.140710 -19.187164 0.040550
				CHANNELS 3 Xrotation Yrotation Zrotation
				JOINT R_foot0001_bind_JNT
				{
					OFFSET 0.132215 -18.028633 -1.138362
					CHANNELS 3 Xrotation Yrotation Zrotation
					JOINT R_foot0002_bind_JNT
					{
						OFFSET -0.007014 -4.693128 9.886505
						CHANNELS 3 Xrotation Yrotation Zrotation
						End Site
						{
							OFFSET 0.000000 0.000000 0.000000
						}
					}
				}
			}
		}
	}
}
MOTION
Frames: 16
Frame Time: 0.033333
0.000000 47.998997 0.000000 179.718155 -87.852501 179.648621 106.246368 84.403946 -107.685196 -3.879909 -1.463973 -0.005532 4.809460 1.044963 0.425111 19.574104 -6.377267 5.764857 -0.492606 -0.285006 -1.009593 1.985853 -12.746261 8.495874 9.132835 4.844868 8.870044 -25.894863 2.012639 -71.191910 -2.519063 4.378968 -5.368420 1.341356 -17.793507 -12.653545 5.957031 2.251668 -11.522332 6.096706 -33.862427 67.940636 -0.045876 -24.676535 -6.205516 -4.909231 14.894982 21.596098 133.853851 83.119850 -135.368469 -15.913225 14.722831 10.792844 31.731834 4.002101 -1.373869 -6.850542 2.123525 -6.828104 -11.359982 0.994630 -2.124716 -10.032757 -8.516031 9.435976 14.700794 -8.399940 3.709555 -7.653544 -14.223690 -5.187005 -4.103467 -1.036766 -1.193076 
-0.499962 48.028980 0.472374 -1.154382 -89.343880 -1.183984 86.856140 84.889435 -88.047379 -3.786864 -1.459254 0.215832 4.686416 0.554901 1.140170 19.972811 -6.914482 5.169264 0.055837 -0.663329 -0.519488 2.443088 -12.793427 8.836824 9.106820 4.172959 9.187783 -24.942902 3.473491 -72.769196 -2.207407 7.370173 -4.050480 1.122985 -17.157393 -13.558259 6.787239 2.928581 -11.898057 4.282963 -33.663525 68.288612 -0.401207 -24.450626 -6.080325 -5.438625 13.624321 21.949614 116.054497 84.467804 -117.677681 -18.391949 14.468701 12.427153 34.395134 4.567307 -0.111583 -6.418571 2.659597 -7.673303 -12.076649 0.697624 -2.779592 -7.943164 -6.388911 11.162879 11.655071 -8.507711 2.988535 -8.544329 -14.170976 -5.630320 -3.054876 -1.446632 -1.560010 
-0.897531 47.909622 0.861815 -0.137413 -88.440773 -0.178916 77.449326 85.267235 -77.958939 -3.736684 -1.604408 0.740358 4.711677 0.441227 1.172607 19.909098 -7.230779 5.505185 0.069380 -0.545881 -0.484256 2.637067 -13.531888 9.133696 8.986789 4.418397 10.192571 -24.940142 3.938224 -73.770592 -1.412892 8.867590 -3.620345 0.924978 -15.968656 -14.694115 6.767372 3.038352 -12.070372 3.164148 -33.036682 67.733795 -2.650019 -24.608191 -7.517180 -4.738424 13.680634 22.622513 114.267265 85.431160 -115.287560 -19.836876 14.119917 13.887744 38.792469 4.345704 -0.752873 -4.705245 2.674518 -9.078877 -14.799660 0.552079 -3.032610 -6.215864 -6.602884 12.343268 10.478454 -7.882925 2.484527 -8.997961 -14.990047 -6.849066 -3.203012 -1.646712 -1.719142 
-1.335868 47.849689 0.985479 -0.294314 -88.601974 -0.335174 77.025116 85.322357 -77.093140 -3.654932 -1.366749 0.934807 4.536656 0.304091 1.260178 19.953259 -7.196238 5.473607 -0.048474 -0.682479 -0.248193 2.380721 -13.364566 8.799206 9.185700 4.233925 10.739967 -24.281328 5.034527 -73.686409 -1.109653 9.748073 -3.392930 0.527954 -15.102596 -15.130818 7.207232 2.442404 -12.497418 0.844588 -30.230522 67.991440 -3.887999 -23.880789 -7.892441 -4.806427 13.129560 22.863787 110.513733 85.676170 -111.268105 -22.633377 13.062343 14.815273 43.104160 4.458535 -0.877606 -3.281439 2.042655 -10.028196 -16.666920 0.354661 -2.845453 -5.530144 -6.005077 12.529377 9.658373 -7.444211 2.321729 -8.634189 -14.770206 -6.991549 -3.288387 -1.667224 -2.047974 
-1.770250 47.745167 1.170826 -179.634232 -89.814423 -179.679276 88.743942 85.899353 -88.376930 -3.283957 -1.255066 1.159472 4.810196 0.343197 1.325284 19.671896 -7.449674 5.801608 0.011818 -0.480213 -0.449505 2.175172 -13.715049 9.405434 8.858105 4.010547 11.241563 -22.616304 6.204821 -73.661797 -1.838844 10.647645 -2.715890 1.154001 -14.380457 -15.159427 7.113582 1.548429 -12.632959 -2.804852 -26.765089 67.505966 -4.998539 -23.941322 -8.102622 -5.392690 13.014474 22.916325 116.339493 85.565308 -116.987831 -25.126860 12.638283 15.045118 45.412579 3.910912 -0.610061 -2.171655 1.916782 -9.619048 -16.361700 0.200458 -3.474601 -4.773131 -5.145724 13.005080 9.190866 -6.798018 1.818954 -8.654414 -15.140461 -6.903508 -3.387299 -1.240049 -2.402611 
-2.100885 47.691296 1.359678 -179.904205 -87.962402 -179.932861 98.750252 86.092545 -97.534744 -3.116291 -1.060230 1.142886 4.692843 0.276797 1.515311 19.568617 -7.485352 5.761390 0.024316 -0.575208 -0.278323 1.760684 -13.603977 9.268042 9.098719 3.315617 11.468499 -21.655317 7.860162 -73.165375 -1.618698 11.343552 -2.251823 1.298360 -13.474235 -15.461686 7.275635 0.606579 -13.032020 -5.963542 -23.647036 67.373253 -6.040740 -22.776974 -8.238141 -6.321588 13.211143 22.929071 120.384796 85.640045 -120.596123 -26.585903 11.975017 14.747569 46.906239 2.653423 -0.539475 -2.141724 1.397783 -8.974255 -15.366830 0.371488 -3.578666 -4.592333 -4.281690 12.918921 9.490382 -6.218740 1.461894 -9.044462 -14.231662 -7.426163 -3.150365 -1.249637 -2.453114 
-2.482420 47.544037 1.435693 -179.923706 -84.089867 -179.948502 126.148140 85.305298 -124.025734 -3.218202 -0.778334 1.143575 5.011889 0.271909 1.483177 19.232870 -7.295513 5.929936 0.119283 -0.416590 -0.547086 1.326837 -13.842196 9.636485 8.773805 2.734599 11.532808 -20.280867 9.249532 -72.868309 -2.251217 12.442899 -1.130491 1.636378 -13.294621 -15.546555 7.279056 -0.367528 -12.789914 -9.638089 -20.350601 66.653297 -6.951089 -21.420443 -7.145416 -6.402175 13.265359 21.857187 138.188171 84.622498 -137.748505 -27.839746 11.391936 13.390647 47.152233 1.804528 -0.393749 -2.880518 0.969959 -7.205141 -13.953868 0.177290 -3.400806 -4.702980 -3.745503 12.646732 10.144105 -5.222613 1.231147 -9.334424 -13.115122 -7.828564 -2.868543 -1.550826 -2.469959 
-2.861207 47.428280 1.591278 -179.941193 -80.188446 -179.981369 141.525269 84.477310 -138.332581 -3.032872 -0.539853 0.832123 5.049376 0.391220 1.820175 19.249359 -7.356206 5.932981 0.049596 -0.344685 -0.502705 1.233692 -13.718168 9.738335 8.780845 1.640223 11.387298 -18.975861 10.957097 -72.077736 -3.108975 14.045698 0.114485 2.020187 -12.874093 -16.005980 7.079029 -1.113409 -12.198971 -12.187548 -17.940451 65.743645 -7.437980 -18.297432 -5.693649 -6.103580 13.391142 20.960861 147.558716 83.981544 -146.424088 -28.228472 11.507673 12.145302 46.613224 0.627751 -0.377774 -4.778896 0.760830 -5.234848 -11.806301 -0.015981 -2.643902 -4.558557 -3.068324 12.347523 11.182181 -4.344645 1.262374 -10.105642 -12.100283 -8.402999 -2.636662 -1.130755 -2.653710 
-3.291752 47.255360 1.757253 -179.966141 -76.418205 -179.996979 148.766769 83.658722 -144.471909 -3.167769 -0.320319 0.932157 5.450041 0.272286 1.649663 18.916265 -7.014987 6.037688 0.112390 -0.423090 -0.452480 0.709179 -13.761628 9.482690 8.442086 1.283020 11.268778 -17.723843 12.250884 -71.328140 -3.377765 15.538640 1.264047 2.325717 -12.592797 -16.475986 6.813165 -1.352508 -11.493946 -14.380389 -15.458898 64.956665 -8.382499 -14.810747 -4.811542 -5.817815 13.131302 21.138792 149.410233 83.346008 -147.027222 -28.751167 10.889171 9.643236 44.509903 0.016619 -0.010562 -6.422282 0.159344 -3.300258 -9.744084 -0.405940 -2.222105 -4.727872 -2.500930 11.771779 12.014704 -3.205578 1.138559 -10.431015 -11.098311 -8.952600 -2.869637 -1.070366 -2.642553 
-3.702607 47.215965 2.007227 179.976196 -73.492317 179.942871 150.382172 83.572418 -145.264954 -3.093577 -0.013496 0.921484 5.421589 0.176517 1.639084 18.835323 -7.079747 6.106300 0.335285 -0.307701 -0.500592 0.345414 -13.923776 9.580745 8.885794 0.678889 11.239718 -16.668783 13.582134 -71.066193 -4.246150 16.761206 3.129901 2.930171 -11.853966 -17.532824 6.894411 -1.699049 -10.412702 -16.904522 -12.675326 64.094009 -8.399657 -11.931477 -3.056620 -6.254187 13.598372 20.904568 147.336685 83.613556 -144.163223 -28.650333 10.725831 7.700573 40.764946 -1.145599 0.648415 -7.834211 -0.710375 -2.608609 -7.112301 -0.533579 -1.809872 -4.759598 -1.700743 11.305382 12.682940 -2.319433 1.147391 -10.451203 -10.291991 -9.312535 -3.173663 -0.666835 -2.918518 
-4.206892 47.167870 2.323602 -179.984238 -71.678467 179.972946 143.004715 84.421028 -136.837646 -3.033352 0.255342 0.612251 5.398618 0.503676 1.756070 18.775705 -7.345127 6.137700 0.122970 -0.025086 -0.706902 0.054025 -14.417890 9.430107 8.857615 0.229485 10.553817 -15.599704 14.713085 -70.128113 -3.963024 17.758509 4.511493 3.068438 -11.570102 -18.128275 6.751870 -2.406144 -9.602984 -18.692333 -10.118084 63.515667 -8.505383 -8.813852 -1.173478 -6.615266 14.152243 21.691591 135.493835 84.943047 -131.140656 -28.222404 9.930808 4.698551 36.152660 -1.865791 1.385409 -8.388534 -1.891638 -3.019657 -4.943633 -0.643457 -1.599785 -4.616478 -1.064654 10.707829 13.377644 -1.247828 0.862531 -10.220721 -9.526258 -9.700482 -3.683476 -0.685973 -3.049350 
-4.870617 47.147911 2.765688 -179.995468 -70.396027 179.970688 127.781425 85.545738 -120.808609 -3.002748 0.683617 0.465765 5.681100 0.661479 1.702995 18.519415 -7.218277 6.123188 0.289405 -0.261822 -0.632752 -0.285263 -14.248300 9.118005 8.605137 -0.248723 9.960989 -14.517671 15.995180 -69.628868 -3.668620 18.673414 5.840762 2.339611 -11.795738 -19.012329 6.740758 -2.569348 -8.592111 -19.928171 -8.118741 63.102715 -8.109198 -5.500458 1.141486 -6.805019 14.901182 21.965815 109.333107 86.090187 -104.273453 -28.078747 9.214389 3.206496 31.934711 -3.166830 1.823175 -8.046266 -3.563951 -5.063595 -3.519608 -0.994739 -1.669533 -3.877338 0.028250 10.752792 13.690098 -0.538075 0.482628 -10.319741 -8.795409 -9.970469 -4.144946 -0.515530 -3.212012 
-5.659620 47.240639 3.220992 179.998230 -69.589272 179.952026 93.115295 85.928352 -85.507576 -3.030325 1.116216 0.267244 5.731368 0.983557 1.420154 18.526583 -7.127247 6.098242 0.205196 -0.293360 -0.557785 -0.466687 -14.381159 8.825835 8.927807 -0.466652 9.140309 -13.849342 17.159906 -68.559410 -3.885078 18.882357 6.645517 2.691608 -11.312374 -19.497934 6.548178 -3.053937 -7.887617 -20.854733 -6.318465 63.105453 -7.519818 -1.836019 3.321947 -6.451150 15.147469 22.843309 64.704803 85.292305 -58.596451 -27.632715 8.393855 1.252789 27.496998 -4.356746 1.808338 -6.927186 -4.639908 -7.832826 -2.240249 -1.724005 -1.635244 -3.343255 0.839252 10.317375 13.590436 0.427300 0.015372 -9.881603 -7.454324 -9.911882 -4.701748 -0.288049 -3.898339 
-6.672381 47.190407 3.868953 179.999008 -68.418976 179.964630 70.293434 84.947815 -62.240021 -3.381960 1.391299 0.292616 5.802265 1.044582 1.135048 18.412067 -7.208565 5.962221 0.193218 -0.154277 -0.628098 -0.449078 -14.169064 8.752552 8.776020 -0.349583 8.278243 -13.029451 17.758484 -67.387642 -4.035511 19.398548 7.384137 2.767145 -11.524667 -20.035147 6.657299 -3.160662 -7.571283 -21.137791 -4.683249 63.622185 -7.043351 1.379829 4.916120 -5.081066 14.978930 22.964304 45.276264 83.400543 -38.346443 -26.485107 7.456922 -0.534970 24.082178 -5.077614 1.807403 -5.791044 -6.548300 -10.078052 -1.352710 -1.786410 -1.649022 -2.177916 1.270672 10.118533 13.848164 1.034814 -0.264032 -10.272779 -5.987271 -9.673161 -5.436796 0.176264 -4.501744 
-7.954010 47.281570 4.395734 -179.988983 -68.917686 179.969803 42.768005 81.780945 -34.468399 -3.374237 1.880681 -0.131412 5.733648 1.532630 0.775292 18.253033 -7.418833 5.930193 0.254938 -0.302437 -0.528998 -0.356890 -14.230124 8.734203 8.904591 -0.504838 7.951933 -12.892745 18.958250 -65.850235 -4.295903 19.137369 7.119244 3.364624 -10.648726 -19.695208 6.564077 -3.614053 -7.539953 -20.734711 -3.124469 64.790977 -6.872865 5.287910 6.189507 -4.453825 14.900167 22.922857 31.820490 79.128471 -23.970385 -25.812674 7.072642 -1.644132 22.511938 -5.107464 0.950051 -4.566054 -7.624340 -9.812378 -1.749650 -2.073143 -1.248074 -1.343486 1.442961 10.179534 14.245857 1.964236 -1.056099 -10.582694 -3.715926 -9.257236 -6.522089 0.459535 -5.669037 
-9.381130 47.240192 4.689039 -179.994156 -68.632683 179.942764 38.358418 79.011223 -30.116495 -3.992899 1.879130 -0.269984 5.693639 1.457783 -0.172942 18.341225 -7.513312 6.380530 0.093610 -0.177678 -0.550122 0.010361 -14.590574 9.409206 8.427813 -0.203072 8.445791 -12.815858 19.333567 -64.473022 -4.788888 18.851997 6.802990 2.968216 -9.874799 -18.850304 6.700617 -3.434373 -7.583997 -20.127434 -2.945229 66.437103 -6.398837 8.643798 6.741073 -3.273048 15.299616 22.276602 28.853106 76.006966 -20.163864 -24.995960 6.221869 -2.952085 21.898317 -4.255190 0.730008 -4.292084 -6.755329 -8.667225 -1.604603 -1.808106 -0.643237 -1.263966 0.968046 10.319108 15.469732 2.060436 -1.182482 -10.320672 -1.674686 -7.853706 -8.483914 1.406184 -7.911578 
